<svg xmlns="http://www.w3.org/2000/svg" width="512" height="512" viewBox="0 0 512 512">
<defs>
<linearGradient id="brand" x1="0.05" y1="0" x2="0.95" y2="1">
<stop offset="0%" stop-color="#9A86FF"/>
<stop offset="52%" stop-color="#7C64F2"/>
<stop offset="100%" stop-color="#C95CEF"/>
</linearGradient>
<linearGradient id="laneA" x1="0" y1="0" x2="0" y2="1">
<stop offset="0%" stop-color="#A493FF"/>
<stop offset="100%" stop-color="#6F5AF0"/>
</linearGradient>
<linearGradient id="laneB" x1="0" y1="0" x2="0" y2="1">
<stop offset="0%" stop-color="#8E76F4"/>
<stop offset="100%" stop-color="#C95CEF"/>
</linearGradient>
<linearGradient id="fTop" x1="0.1" y1="0" x2="0.7" y2="1">
<stop offset="0%" stop-color="#C3B5FF"/>
<stop offset="100%" stop-color="#9079F4"/>
</linearGradient>
<linearGradient id="fLeft" x1="0" y1="0" x2="0" y2="1">
<stop offset="0%" stop-color="#6B57E6"/>
<stop offset="100%" stop-color="#4A38BE"/>
</linearGradient>
<linearGradient id="fRight" x1="0" y1="0" x2="0.4" y2="1">
<stop offset="0%" stop-color="#B45EF0"/>
<stop offset="100%" stop-color="#8E2ECC"/>
</linearGradient>
<filter id="glow" x="-60%" y="-60%" width="220%" height="220%">
<feGaussianBlur stdDeviation="6" result="b"/>
<feMerge>
<feMergeNode in="b"/>
<feMergeNode in="SourceGraphic"/>
</feMerge>
</filter>
</defs>
<path d="M256.0,98.0 L387.6,174.0 L256.0,250.0 L124.4,174.0 Z" fill="#FFFFFF" fill-opacity="0.30"/>
<path d="M387.6,174.0 L387.6,326.0 L256.0,402.0 L256.0,250.0 Z" fill="#FFFFFF" fill-opacity="0.62"/>
<path d="M256.0,250.0 L256.0,402.0 L124.4,326.0 L124.4,174.0 Z" fill="#FFFFFF" fill-opacity="0.46"/>
<path d="M256.0,98.0 L387.6,174.0 L387.6,326.0 L256.0,402.0 L124.4,326.0 L124.4,174.0 Z" fill="none" stroke="#FFFFFF" stroke-opacity="0.0" stroke-width="3" stroke-linejoin="round"/>
<g filter="url(#glow)" fill="none" stroke-width="16" stroke-linecap="round">
<path d="M256.0,250.0 L124.4,174.0" stroke="#FFFFFF"/>
<path d="M256.0,250.0 L387.6,174.0" stroke="#FFFFFF"/>
<path d="M256.0,250.0 L256.0,402.0" stroke="#FFFFFF"/>
</g>
<g filter="url(#glow)">
<circle cx="124.4" cy="174.0" r="19" fill="#FFFFFF"/>
<circle cx="124.4" cy="174.0" r="8.0" fill="#FFFFFF"/>
</g>
<g filter="url(#glow)">
<circle cx="387.6" cy="174.0" r="19" fill="#FFFFFF"/>
<circle cx="387.6" cy="174.0" r="8.0" fill="#FFFFFF"/>
</g>
<g filter="url(#glow)">
<circle cx="256.0" cy="402.0" r="19" fill="#FFFFFF"/>
<circle cx="256.0" cy="402.0" r="8.0" fill="#FFFFFF"/>
</g>
<g filter="url(#glow)">
<circle cx="256.0" cy="250.0" r="23" fill="#FFFFFF"/>
<circle cx="256.0" cy="250.0" r="9.7" fill="#FFFFFF"/>
</g>
</svg>
