<svg xmlns="http://www.w3.org/2000/svg" width="822" height="267" viewBox="0 0 822 267"><defs><linearGradient id="brand" x1="0.05" y1="0" x2="0.95" y2="1"><stop offset="0%" stop-color="#A98CFF"/><stop offset="52%" stop-color="#8E78F6"/><stop offset="100%" stop-color="#C36BF0"/></linearGradient><linearGradient id="fTop" x1="0.1" y1="0" x2="0.7" y2="1"><stop offset="0%" stop-color="#4E4C6A"/><stop offset="100%" stop-color="#383650"/></linearGradient><linearGradient id="fLeft" x1="0" y1="0" x2="0" y2="1"><stop offset="0%" stop-color="#2C2A44"/><stop offset="100%" stop-color="#1C1A30"/></linearGradient><linearGradient id="fRight" x1="0" y1="0" x2="0.4" y2="1"><stop offset="0%" stop-color="#3C3A58"/><stop offset="100%" stop-color="#282640"/></linearGradient><filter id="glow" x="-60%" y="-60%" width="220%" height="220%"><feGaussianBlur stdDeviation="6" result="b"/><feMerge><feMergeNode in="b"/><feMergeNode in="SourceGraphic"/></feMerge></filter></defs><g transform="translate(116,130) scale(0.495) translate(-256,-250)"><mask id="wmHoles" maskUnits="userSpaceOnUse" x="0" y="0" width="512" height="512"><rect width="512" height="512" fill="#fff"/><circle cx="124.4" cy="174.0" r="9.2" fill="#000"/><circle cx="387.6" cy="174.0" r="9.2" fill="#000"/><circle cx="256.0" cy="402.0" r="9.2" fill="#000"/><circle cx="256.0" cy="250.0" r="10.4" fill="#000"/></mask><g mask="url(#wmHoles)"><path d="M256.0,98.0 L387.6,174.0 L256.0,250.0 L124.4,174.0 Z" fill="url(#fTop)"/><path d="M387.6,174.0 L387.6,326.0 L256.0,402.0 L256.0,250.0 Z" fill="url(#fRight)"/><path d="M256.0,250.0 L256.0,402.0 L124.4,326.0 L124.4,174.0 Z" fill="url(#fLeft)"/><path d="M256.0,98.0 L387.6,174.0 L387.6,326.0 L256.0,402.0 L124.4,326.0 L124.4,174.0 Z" fill="none" stroke="#FFFFFF" stroke-opacity="0.12" stroke-width="3" stroke-linejoin="round"/><g fill="none" stroke-width="18" stroke-linecap="round"><path d="M256.0,250.0 L124.4,174.0" stroke="#A98CFF"/><path d="M256.0,250.0 L387.6,174.0" stroke="#A98CFF"/><path d="M256.0,250.0 L256.0,402.0" stroke="#A98CFF"/></g><circle cx="124.4" cy="174.0" r="23" fill="#A98CFF"/><circle cx="387.6" cy="174.0" r="23" fill="#A98CFF"/><circle cx="256.0" cy="402.0" r="23" fill="#A98CFF"/><circle cx="256.0" cy="250.0" r="26" fill="#A98CFF"/></g></g><path transform="translate(240.96,180.18) scale(0.06250,-0.06250)" d="M776.1600992828608 -23.111083984375Q569.778216958046 -23.111083984375 412.8161824531853 72.86671915650368Q255.85414794832468 168.84452229738235 167.40310506150126 341.58007853105664Q78.95206217467785 514.3156347647309 78.95206217467785 743.8400016278028Q78.95206217467785 979.444195151329 169.21413126587868 1152.0797578953207Q259.4762003570795 1324.7153206393123 416.442667234689 1418.9132023118436Q573.4091341122985 1513.111083984375 772.0534537732601 1513.111083984375Q896.7109781876206 1513.111083984375 1005.7374043762684 1476.0755578614771Q1114.7638305649161 1439.0400317385793 1200.0414506010711 1370.655662842095Q1285.319070637226 1302.2712939456105 1340.5456994622946 1208.4380672201514Q1395.772328287363 1114.6048404946923 1411.8346883133054 1000.3738981112838H1142.0070027634501Q1127.313492834568 1062.747695311904 1095.286538489163 1113.3569734692574Q1063.2595841437578 1163.9662516266108 1015.9414453096688 1200.2776566557586Q968.6233064755797 1236.5890616849065 908.6162369772792 1256.0425565578043Q848.6091674789786 1275.4960514307022 777.5954418927431 1275.4960514307022Q647.3149308264256 1275.4960514307022 550.0677022300661 1210.6356958001852Q452.82047363370657 1145.7753401696682 399.28008626401424 1026.7836083993316Q345.7396988943219 907.7918766289949 345.7396988943219 744.3199967443943Q345.7396988943219 581.7503491193056 399.3711954765022 462.99862548708916Q453.00269205868244 344.2469018548727 550.8343607597053 279.37542521208525Q648.6660294607282 214.5039485692978 780.6798885092139 214.5039485692978Q892.5426708981395 214.5039485692978 978.5499129220843 259.4288126640022Q1064.5571549460292 304.35367675870657 1113.5108780898154 385.12111328169703Q1162.4646012336016 465.8885498046875 1162.4646012336016 573.3740307614207L1229.1219742819667 567.4362654611468H816.2317626923323V776.8876448571682H1422.3991129547358V596.883968912065Q1422.3991129547358 413.31974202394485 1338.639183755964 273.65318237245083Q1254.8792545571923 133.9866227209568 1109.2594694010913 55.4377693682909Q963.6396842449903 -23.111083984375 776.1600992828608 -23.111083984375Z" fill="#F5F3FF"/><path transform="translate(334.34,180.18) scale(0.06250,-0.06250)" d="M117.43192708492279 0V1069.7781982421875H371.8108544945717V0ZM244.4036352559924 1227.0688688084483Q180.3776098638773 1227.0688688084483 136.8912927247584 1268.5214789451734Q93.40497558563948 1309.9740890818987 93.40497558563948 1370.4156242963036Q93.40497558563948 1431.178375646472 136.8912927247584 1472.2692049108446Q180.3776098638773 1513.3600341752172 244.0411788694633 1513.3600341752172Q308.4690375083259 1513.3600341752172 352.0067811262395 1472.3077747699406Q395.544524744153 1431.255515364664 395.544524744153 1370.0573390096877Q395.544524744153 1309.7527425065637 351.9573988407732 1268.410805657506Q308.3702729373934 1227.0688688084483 244.4036352559924 1227.0688688084483Z" fill="#F5F3FF"/><path transform="translate(363.90,180.18) scale(0.06250,-0.06250)" d="M666.2012223377824 1069.7781982421875V866.722664386034H17.511075846850872V1069.7781982421875ZM196.18665527552366 1352.88916015625H450.56558268517256V305.4739314839244Q450.56558268517256 248.48249918967485 474.21683472022414 225.0800984725356Q497.8680867552757 201.67769775539637 558.9216243550181 201.67769775539637Q581.7881941795349 201.67769775539637 613.1279801502824 202.60661336407065Q644.4677661210299 203.53552897274494 663.907858081162 204.42444498836994L673.0103222727776 2.0533666983246803Q643.0059114694595 -0.888916015625 600.1463374942541 -2.1200598143041134Q557.2867635190487 -3.3512036129832268 516.0072989985347 -3.3512036129832268Q354.4082690477371 -3.3512036129832268 275.2974621616304 65.16646036878228Q196.18665527552366 133.6841243505478 196.18665527552366 271.9635856151581Z" fill="#F5F3FF"/><path transform="translate(407.71,180.18) scale(0.06250,-0.06250)" d="M665.2969710305333 -23.804464519023895Q483.58198730647564 -23.804464519023895 352.40896118432283 35.60437621921301Q221.23593506217003 95.01321695744991 150.24047282338142 206.77968139201403Q79.24501058459282 318.54614582657814 77.88494303822517 475.1990592330694H337.9664168357849Q340.2642106190324 388.24744790792465 380.64443604275584 326.61601643264294Q421.0246614664793 264.9845849573612 494.1961401440203 232.69554687291384Q567.3676188215613 200.40650878846645 666.2169067412615 200.40650878846645Q758.519698895514 200.40650878846645 827.2801643908024 226.9289660640061Q896.0406298860908 253.45142333954573 934.6253499388695 301.8940861001611Q973.2100699916482 350.3367488607764 973.2100699916482 415.2751212567091Q973.2100699916482 469.1778019219637 944.014379478991 508.07585164532065Q914.8186889663339 546.9739013686776 854.1429565437138 575.5518489591777Q793.4672241210938 604.1297965496778 698.1693066433072 626.0410229489207L536.0000423192978 664.1035083010793Q320.6668823286891 714.072578124702 215.16930216923356 813.5745666511357Q109.67172200977802 913.0765551775694 109.67172200977802 1070.2674235031009Q109.67172200977802 1203.5205436199903 178.6715584360063 1302.9781457521021Q247.6713948622346 1402.435747884214 371.11108846589923 1457.7734159342945Q494.55078206956387 1513.111083984375 657.0258764699101 1513.111083984375Q821.6475878953934 1513.111083984375 942.7539595589042 1456.2311560064554Q1063.860331222415 1399.3512280285358 1131.473531499505 1295.0136617049575Q1199.0867317765951 1190.6760953813791 1203.1267203837633 1048.0631722062826H950.0718750059605Q941.8807096406817 1160.9349601268768 862.8824405968189 1224.8108728043735Q783.8841715529561 1288.6867854818702 655.4256779029965 1288.6867854818702Q572.7851245179772 1288.6867854818702 509.5891479551792 1262.49767171219Q446.3931713923812 1236.3085579425097 410.8884916231036 1190.1237129718065Q375.38381185382605 1143.9388680011034 375.38381185382605 1083.867255859077Q375.38381185382605 1031.022336423397 405.2951680570841 993.7420397922397Q435.2065242603421 956.4617431610823 494.6889925226569 929.5260253883898Q554.1714607849717 902.5903076156974 642.7715104222298 881.8968758136034L791.4476302117109 846.9188159182668Q899.9180948883295 822.4033015966415 983.0311914049089 785.7055900096893Q1066.1442879214883 749.0078784227371 1122.7042972818017 698.0657303929329Q1179.2643066421151 647.1235823631287 1208.2110705599189 579.9858406633139Q1237.1578344777226 512.8480989634991 1237.1578344777226 427.51028157770634Q1237.1578344777226 290.50627848505974 1167.866854660213 188.92644124478102Q1098.5758748427033 87.3466040045023 970.327284347266 31.7710697427392Q842.0786938518286 -23.804464519023895 665.2969710305333 -23.804464519023895Z" fill="url(#brand)"/><path transform="translate(488.90,180.18) scale(0.06250,-0.06250)" d="M666.2012223377824 1069.7781982421875V866.722664386034H17.511075846850872V1069.7781982421875ZM196.18665527552366 1352.88916015625H450.56558268517256V305.4739314839244Q450.56558268517256 248.48249918967485 474.21683472022414 225.0800984725356Q497.8680867552757 201.67769775539637 558.9216243550181 201.67769775539637Q581.7881941795349 201.67769775539637 613.1279801502824 202.60661336407065Q644.4677661210299 203.53552897274494 663.907858081162 204.42444498836994L673.0103222727776 2.0533666983246803Q643.0059114694595 -0.888916015625 600.1463374942541 -2.1200598143041134Q557.2867635190487 -3.3512036129832268 516.0072989985347 -3.3512036129832268Q354.4082690477371 -3.3512036129832268 275.2974621616304 65.16646036878228Q196.18665527552366 133.6841243505478 196.18665527552366 271.9635856151581Z" fill="url(#brand)"/><path transform="translate(532.71,180.18) scale(0.06250,-0.06250)" d="M495.3522998020053 -19.786570638418198Q384.3168530240655 -19.786570638418198 298.8034175597131 28.433367919176817Q213.28998209536076 76.65330647677183 165.36095459014177 170.20442708209157Q117.43192708492279 263.7555476874113 117.43192708492279 398.8179720044136V1069.7781982421875H371.8108544945717V438.8435237631202Q371.8108544945717 323.54051595181227 428.4757141135633 262.5823339857161Q485.1405737325549 201.62415201961994 586.1990421563387 201.62415201961994Q653.0661686211824 201.62415201961994 705.577720541507 229.353231202811Q758.0892724618316 257.08231038600206 788.3784554041922 314.57381388545036Q818.6676383465528 372.06531738489866 818.6676383465528 459.8214534521103V1069.7781982421875H1073.1887955740094V0H825.0542968735099L824.4143033847213 270.33293864130974H867.2407617196441Q817.2007088214159 128.51942382752895 724.8340136706829 54.36642659455538Q632.4673185199499 -19.786570638418198 495.3522998020053 -19.786570638418198Z" fill="url(#brand)"/><path transform="translate(606.15,180.18) scale(0.06250,-0.06250)" d="M526.6052115932107 -21.20886881649494Q390.4807511419058 -21.20886881649494 287.0029305033386 47.664495442062616Q183.52510986477137 116.53785970062017 125.99841593578458 241.522336833179Q68.47172200679779 366.5068139657378 68.47172200679779 534.9423828125Q68.47172200679779 702.8535815402865 126.72950765118003 827.5869510881603Q184.98729329556227 952.320320636034 288.2851212583482 1020.9425447583199Q391.5829492211342 1089.5647688806057 525.3075000047684 1089.5647688806057Q601.1166813224554 1089.5647688806057 661.4501436427236 1067.5579565428197Q721.7836059629917 1045.5511442050338 767.3769384808838 1005.8866092935205Q812.970270998776 966.2220743820071 843.3746183291078 912.3466959670186H847.1213867217302V1490H1101.5003141313791V0H851.4058463573456V164.88891275972128H846.4857023134828Q816.4500927776098 108.19581787288189 770.1767460182309 66.35135538876057Q723.903399258852 24.506892904639244 662.996660977602 1.6490120440721512Q602.089922696352 -21.20886881649494 526.6052115932107 -21.20886881649494ZM588.5460555031896 190.4066162109375Q671.6356046572328 190.4066162109375 732.3915861025453 233.266933593899Q793.1475675478578 276.1272509768605 826.1210998557508 353.78113850951195Q859.0946321636438 431.4350260421634 859.0946321636438 535.2268424481153Q859.0946321636438 639.6764420568943 826.1922147646546 716.7347684726119Q793.2897973656654 793.7930948883295 732.5338159203529 836.4000679515302Q671.7778344750404 879.0070410147309 588.5460555031896 879.0070410147309Q508.6520670577884 879.0070410147309 449.6315987147391 837.9645178206265Q390.6111303716898 796.9219946265221 358.4819868989289 720.2192232236266Q326.35284342616796 643.5164518207312 326.35284342616796 535.2268424481153Q326.35284342616796 427.37278727442026 358.5531018078327 350.10557007044554Q390.75336018949747 272.8383528664708 449.8449434414506 231.62248453870416Q508.9365266934037 190.4066162109375 588.5460555031896 190.4066162109375Z" fill="url(#brand)"/><path transform="translate(681.34,180.18) scale(0.06250,-0.06250)" d="M117.43192708492279 0V1069.7781982421875H371.8108544945717V0ZM244.4036352559924 1227.0688688084483Q180.3776098638773 1227.0688688084483 136.8912927247584 1268.5214789451734Q93.40497558563948 1309.9740890818987 93.40497558563948 1370.4156242963036Q93.40497558563948 1431.178375646472 136.8912927247584 1472.2692049108446Q180.3776098638773 1513.3600341752172 244.0411788694633 1513.3600341752172Q308.4690375083259 1513.3600341752172 352.0067811262395 1472.3077747699406Q395.544524744153 1431.255515364664 395.544524744153 1370.0573390096877Q395.544524744153 1309.7527425065637 351.9573988407732 1268.410805657506Q308.3702729373934 1227.0688688084483 244.4036352559924 1227.0688688084483Z" fill="url(#brand)"/><path transform="translate(710.90,180.18) scale(0.06250,-0.06250)" d="M592.3728263378143 -23.680003255605698Q435.63982259482145 -23.680003255605698 317.551188968122 46.35338134691119Q199.46255534142256 116.38676594942808 133.96713867411017 241.6801403798163Q68.47172200679779 366.9735148102045 68.47172200679779 532.6579231768847Q68.47172200679779 699.2668058276176 133.96713867411017 824.9890869148076Q199.46255534142256 950.7113680019975 317.551188968122 1021.1336381025612Q435.63982259482145 1091.555908203125 592.3728263378143 1091.555908203125Q750.0258308947086 1091.555908203125 867.7166947461665 1021.1336381025612Q985.4075585976243 950.7113680019975 1050.9029752649367 824.9890869148076Q1116.398391932249 699.2668058276176 1116.398391932249 532.6579231768847Q1116.398391932249 366.9735148102045 1050.9029752649367 241.6801403798163Q985.4075585976243 116.38676594942808 867.7166947461665 46.35338134691119Q750.0258308947086 -23.680003255605698 592.3728263378143 -23.680003255605698ZM592.3728263378143 187.23330078274012Q675.8225724324584 187.23330078274012 735.4675020389259 230.07368652522564Q795.1124316453934 272.91407226771116 827.0459643602371 350.8857413753867Q858.9794970750809 428.85741048306227 858.9794970750809 532.8179215490818Q858.9794970750809 638.2762174457312 827.0459643602371 716.1301245093346Q795.1124316453934 793.984031572938 735.4675020389259 837.3133178688586Q675.8225724324584 880.6426041647792 592.3728263378143 880.6426041647792Q509.7630818709731 880.6426041647792 449.83149699121714 837.5622102841735Q389.89991211146116 794.4818164035678 357.9663793966174 716.4501318335533Q326.03284668177366 638.4184472635388 326.03284668177366 532.8179215490818Q326.03284668177366 428.35962565243244 357.9663793966174 350.6368489600718Q389.89991211146116 272.91407226771116 449.5826045759022 230.07368652522564Q509.2652970403433 187.23330078274012 592.3728263378143 187.23330078274012Z" fill="url(#brand)"/></svg>