<svg xmlns="http://www.w3.org/2000/svg" width="512" height="512" viewBox="0 0 512 512">
<defs>
<linearGradient id="brand" x1="0.05" y1="0" x2="0.95" y2="1">
<stop offset="0%" stop-color="#9A86FF"/>
<stop offset="52%" stop-color="#7C64F2"/>
<stop offset="100%" stop-color="#C95CEF"/>
</linearGradient>
<linearGradient id="laneA" x1="0" y1="0" x2="0" y2="1">
<stop offset="0%" stop-color="#A493FF"/>
<stop offset="100%" stop-color="#6F5AF0"/>
</linearGradient>
<linearGradient id="laneB" x1="0" y1="0" x2="0" y2="1">
<stop offset="0%" stop-color="#8E76F4"/>
<stop offset="100%" stop-color="#C95CEF"/>
</linearGradient>
<linearGradient id="fTop" x1="0.1" y1="0" x2="0.7" y2="1">
<stop offset="0%" stop-color="#C3B5FF"/>
<stop offset="100%" stop-color="#9079F4"/>
</linearGradient>
<linearGradient id="fLeft" x1="0" y1="0" x2="0" y2="1">
<stop offset="0%" stop-color="#6B57E6"/>
<stop offset="100%" stop-color="#4A38BE"/>
</linearGradient>
<linearGradient id="fRight" x1="0" y1="0" x2="0.4" y2="1">
<stop offset="0%" stop-color="#B45EF0"/>
<stop offset="100%" stop-color="#8E2ECC"/>
</linearGradient>
<linearGradient id="bg" x1="0" y1="0" x2="0" y2="1">
<stop offset="0%" stop-color="#363D4C"/>
<stop offset="100%" stop-color="#171B23"/>
</linearGradient>
<radialGradient id="bgglow" cx="0.30" cy="0.20" r="0.95">
<stop offset="0%" stop-color="#534B82" stop-opacity="0.55"/>
<stop offset="60%" stop-color="#2A2D3A" stop-opacity="0"/>
</radialGradient>
<filter id="glow" x="-60%" y="-60%" width="220%" height="220%">
<feGaussianBlur stdDeviation="6" result="b"/>
<feMerge>
<feMergeNode in="b"/>
<feMergeNode in="SourceGraphic"/>
</feMerge>
</filter>
</defs>
<rect width="512" height="512" rx="116" fill="url(#bg)"/>
<rect width="512" height="512" rx="116" fill="url(#bgglow)"/>
<rect x="2" y="2" width="508" height="508" rx="114" fill="none" stroke="#fff" stroke-opacity="0.06" stroke-width="3"/>
<path d="M256.0,98.0 L387.6,174.0 L256.0,250.0 L124.4,174.0 Z" fill="url(#fTop)"/>
<path d="M387.6,174.0 L387.6,326.0 L256.0,402.0 L256.0,250.0 Z" fill="url(#fRight)"/>
<path d="M256.0,250.0 L256.0,402.0 L124.4,326.0 L124.4,174.0 Z" fill="url(#fLeft)"/>
<path d="M256.0,98.0 L387.6,174.0 L387.6,326.0 L256.0,402.0 L124.4,326.0 L124.4,174.0 Z" fill="none" stroke="#FFFFFF" stroke-opacity="0.12" stroke-width="3" stroke-linejoin="round"/>
<g filter="url(#glow)" fill="none" stroke-width="16" stroke-linecap="round" stroke-opacity="0.9">
<path d="M256.0,250.0 L124.4,174.0" stroke="url(#fLeft)"/>
<path d="M256.0,250.0 L387.6,174.0" stroke="url(#fRight)"/>
<path d="M256.0,250.0 L256.0,402.0" stroke="url(#brand)"/>
</g>
<g filter="url(#glow)">
<circle cx="124.4" cy="174.0" r="19" fill="url(#fLeft)"/>
<circle cx="124.4" cy="174.0" r="8.0" fill="#F5F3FF"/>
</g>
<g filter="url(#glow)">
<circle cx="387.6" cy="174.0" r="19" fill="url(#fRight)"/>
<circle cx="387.6" cy="174.0" r="8.0" fill="#F5F3FF"/>
</g>
<g filter="url(#glow)">
<circle cx="256.0" cy="402.0" r="19" fill="url(#brand)"/>
<circle cx="256.0" cy="402.0" r="8.0" fill="#F5F3FF"/>
</g>
<g filter="url(#glow)">
<circle cx="256.0" cy="250.0" r="23" fill="url(#brand)"/>
<circle cx="256.0" cy="250.0" r="9.7" fill="#F5F3FF"/>
</g>
</svg>
