<svg xmlns="http://www.w3.org/2000/svg" width="512" height="512" viewBox="0 0 512 512">
<defs>
<linearGradient id="fTop" x1="0.1" y1="0" x2="0.7" y2="1">
<stop offset="0%" stop-color="#7B79A6"/>
<stop offset="100%" stop-color="#5D5B82"/>
</linearGradient>
<linearGradient id="fLeft" x1="0" y1="0" x2="0" y2="1">
<stop offset="0%" stop-color="#39375A"/>
<stop offset="100%" stop-color="#2A2845"/>
</linearGradient>
<linearGradient id="fRight" x1="0" y1="0" x2="0.4" y2="1">
<stop offset="0%" stop-color="#55527C"/>
<stop offset="100%" stop-color="#403E63"/>
</linearGradient>
<linearGradient id="bg" x1="0" y1="0" x2="0" y2="1">
<stop offset="0%" stop-color="#FBFAFE"/>
<stop offset="100%" stop-color="#EDEBF7"/>
</linearGradient>
<radialGradient id="bgglow" cx="0.30" cy="0.20" r="0.95">
<stop offset="0%" stop-color="#CFC4F2" stop-opacity="0.55"/>
<stop offset="60%" stop-color="#D5D9E6" stop-opacity="0"/>
</radialGradient>
<linearGradient id="lane" gradientUnits="userSpaceOnUse" x1="256" y1="158" x2="256" y2="420">
<stop offset="0%" stop-color="#8B75F5"/>
<stop offset="100%" stop-color="#6B5BE6"/>
</linearGradient>
</defs>
<rect width="512" height="512" rx="116" fill="url(#bg)"/>
<rect width="512" height="512" rx="116" fill="url(#bgglow)"/>
<rect x="2" y="2" width="508" height="508" rx="114" fill="none" stroke="#1B1A2E" stroke-opacity="0.10" stroke-width="3"/>
<mask id="cubeHoles" maskUnits="userSpaceOnUse" x="0" y="0" width="512" height="512">
<rect width="512" height="512" fill="#fff"/>
<circle cx="111.6" cy="166.6" r="11.0" fill="#000"/>
<circle cx="400.4" cy="166.6" r="11.0" fill="#000"/>
<circle cx="256.0" cy="416.9" r="11.0" fill="#000"/>
<circle cx="256.0" cy="250.0" r="12.4" fill="#000"/>
</mask>
<g mask="url(#cubeHoles)">
<path d="M256.0,83.0 L400.4,166.6 L256.0,250.0 L111.6,166.6 Z" fill="url(#fTop)"/>
<path d="M400.4,166.6 L400.4,333.4 L256.0,416.9 L256.0,250.0 Z" fill="url(#fRight)"/>
<path d="M256.0,250.0 L256.0,416.9 L111.6,333.4 L111.6,166.6 Z" fill="url(#fLeft)"/>
<path d="M256.0,83.0 L400.4,166.6 L400.4,333.4 L256.0,416.9 L111.6,333.4 L111.6,166.6 Z" fill="none" stroke="#1B1A2E" stroke-opacity="0.18" stroke-width="3.5" stroke-linejoin="round"/>
<path d="M256.0,83.0 L400.4,166.6 L256.0,250.0 L111.6,166.6 Z" fill="none" stroke="#FFFFFF" stroke-opacity="0.28" stroke-width="3.5" stroke-linejoin="round"/>
<g fill="none" stroke-width="21" stroke-linecap="round">
<path d="M256.0,250.0 L111.6,166.6" stroke="url(#lane)"/>
<path d="M256.0,250.0 L400.4,166.6" stroke="url(#lane)"/>
<path d="M256.0,250.0 L256.0,416.9" stroke="url(#lane)"/>
</g>
<circle cx="111.6" cy="166.6" r="25" fill="#6B5BE6"/>
<circle cx="400.4" cy="166.6" r="25" fill="#6B5BE6"/>
<circle cx="256.0" cy="416.9" r="25" fill="#6B5BE6"/>
<circle cx="256.0" cy="250.0" r="28" fill="#7C64F2"/>
<circle cx="111.6" cy="166.6" r="10" fill="#FFFFFF"/>
<circle cx="400.4" cy="166.6" r="10" fill="#FFFFFF"/>
<circle cx="256.0" cy="416.9" r="10" fill="#FFFFFF"/>
<circle cx="256.0" cy="250.0" r="11.5" fill="#FFFFFF"/>
</g>
</svg>
