<svg xmlns="http://www.w3.org/2000/svg" width="512" height="512" viewBox="0 0 512 512">
<defs>
<linearGradient id="fTop" x1="0.1" y1="0" x2="0.7" y2="1">
<stop offset="0%" stop-color="#7B79A6"/><stop offset="100%" stop-color="#5D5B82"/>
</linearGradient>
<linearGradient id="fLeft" x1="0" y1="0" x2="0" y2="1">
<stop offset="0%" stop-color="#39375A"/><stop offset="100%" stop-color="#2A2845"/>
</linearGradient>
<linearGradient id="fRight" x1="0" y1="0" x2="0.4" y2="1">
<stop offset="0%" stop-color="#55527C"/><stop offset="100%" stop-color="#403E63"/>
</linearGradient>
<linearGradient id="bg" x1="0" y1="0" x2="0" y2="1">
<stop offset="0%" stop-color="#20202F"/><stop offset="100%" stop-color="#0E0E1A"/>
</linearGradient>
<radialGradient id="bgglow" cx="0.30" cy="0.20" r="0.95">
<stop offset="0%" stop-color="#4A4480" stop-opacity="0.55"/>
<stop offset="60%" stop-color="#2A2D3A" stop-opacity="0"/>
</radialGradient>
<linearGradient id="lane" gradientUnits="userSpaceOnUse" x1="256.0" y1="155.0" x2="256.0" y2="436.0">
<stop offset="0%" stop-color="#DCCFFF"/><stop offset="100%" stop-color="#AB8FFF"/>
</linearGradient>
<mask id="cubeHoles" maskUnits="userSpaceOnUse" x="0" y="0" width="512" height="512">
<rect width="512" height="512" fill="#fff"/><circle cx="92.0" cy="155.0" r="14.0" fill="#000"/><circle cx="420.0" cy="155.0" r="14.0" fill="#000"/><circle cx="256.0" cy="436.0" r="14.0" fill="#000"/><circle cx="256.0" cy="246.0" r="16.0" fill="#000"/>
</mask>
</defs>
<rect width="512" height="512" rx="116" fill="url(#bg)"/>
<rect width="512" height="512" rx="116" fill="url(#bgglow)"/>
<rect x="2" y="2" width="508" height="508" rx="114" fill="none" stroke="#ffffff" stroke-opacity="0.07" stroke-width="3"/>
<g mask="url(#cubeHoles)">
<path d="M256.0,64.0 L420.0,155.0 L256.0,246.0 L92.0,155.0 Z" fill="url(#fTop)"/>
<path d="M420.0,155.0 L420.0,345.0 L256.0,436.0 L256.0,246.0 Z" fill="url(#fRight)"/>
<path d="M256.0,246.0 L256.0,436.0 L92.0,345.0 L92.0,155.0 Z" fill="url(#fLeft)"/>
<path d="M256.0,64.0 L420.0,155.0 L420.0,345.0 L256.0,436.0 L92.0,345.0 L92.0,155.0 Z" fill="none" stroke="#0E0E1A" stroke-opacity="0.35" stroke-width="3.5" stroke-linejoin="round"/>
<path d="M256.0,64.0 L420.0,155.0 L256.0,246.0 L92.0,155.0 Z" fill="none" stroke="#FFFFFF" stroke-opacity="0.16" stroke-width="3.5" stroke-linejoin="round"/>
<g fill="none" stroke-width="33" stroke-linecap="round">
<path d="M256.0,246.0 L92.0,155.0" stroke="url(#lane)"/>
<path d="M256.0,246.0 L420.0,155.0" stroke="url(#lane)"/>
<path d="M256.0,246.0 L256.0,436.0" stroke="url(#lane)"/>
</g>
<circle cx="92.0" cy="155.0" r="33" fill="#C3ACFF"/><circle cx="420.0" cy="155.0" r="33" fill="#C3ACFF"/><circle cx="256.0" cy="436.0" r="33" fill="#C3ACFF"/><circle cx="256.0" cy="246.0" r="37" fill="#D0BCFF"/>
</g>
</svg>