<svg xmlns="http://www.w3.org/2000/svg" width="512" height="512" viewBox="0 0 512 512">
<defs>
<linearGradient id="fTop" x1="0.1" y1="0" x2="0.7" y2="1">
<stop offset="0%" stop-color="#4E4C6A"/>
<stop offset="100%" stop-color="#383650"/>
</linearGradient>
<linearGradient id="fLeft" x1="0" y1="0" x2="0" y2="1">
<stop offset="0%" stop-color="#2C2A44"/>
<stop offset="100%" stop-color="#1C1A30"/>
</linearGradient>
<linearGradient id="fRight" x1="0" y1="0" x2="0.4" y2="1">
<stop offset="0%" stop-color="#3C3A58"/>
<stop offset="100%" stop-color="#282640"/>
</linearGradient>
</defs>
<mask id="cubeHoles" maskUnits="userSpaceOnUse" x="0" y="0" width="512" height="512">
<rect width="512" height="512" fill="#fff"/>
<circle cx="124.4" cy="174.0" r="9.2" fill="#000"/>
<circle cx="387.6" cy="174.0" r="9.2" fill="#000"/>
<circle cx="256.0" cy="402.0" r="9.2" fill="#000"/>
<circle cx="256.0" cy="250.0" r="10.4" fill="#000"/>
</mask>
<g mask="url(#cubeHoles)">
<path d="M256.0,98.0 L387.6,174.0 L256.0,250.0 L124.4,174.0 Z" fill="#1B1F2A" fill-opacity="0.30"/>
<path d="M387.6,174.0 L387.6,326.0 L256.0,402.0 L256.0,250.0 Z" fill="#1B1F2A" fill-opacity="0.62"/>
<path d="M256.0,250.0 L256.0,402.0 L124.4,326.0 L124.4,174.0 Z" fill="#1B1F2A" fill-opacity="0.46"/>
<path d="M256.0,98.0 L387.6,174.0 L387.6,326.0 L256.0,402.0 L124.4,326.0 L124.4,174.0 Z" fill="none" stroke="#1B1F2A" stroke-opacity="0.0" stroke-width="3" stroke-linejoin="round"/>
<g fill="none" stroke-width="18" stroke-linecap="round">
<path d="M256.0,250.0 L124.4,174.0" stroke="#1B1F2A"/>
<path d="M256.0,250.0 L387.6,174.0" stroke="#1B1F2A"/>
<path d="M256.0,250.0 L256.0,402.0" stroke="#1B1F2A"/>
</g>
<circle cx="124.4" cy="174.0" r="23" fill="#1B1F2A"/>
<circle cx="387.6" cy="174.0" r="23" fill="#1B1F2A"/>
<circle cx="256.0" cy="402.0" r="23" fill="#1B1F2A"/>
<circle cx="256.0" cy="250.0" r="26" fill="#1B1F2A"/>
</g>
</svg>
