<svg xmlns="http://www.w3.org/2000/svg" width="512" height="512" viewBox="0 0 512 512">
<defs>
<linearGradient id="brand" x1="0.05" y1="0" x2="0.95" y2="1">
<stop offset="0%" stop-color="#9A86FF"/>
<stop offset="52%" stop-color="#7C64F2"/>
<stop offset="100%" stop-color="#C95CEF"/>
</linearGradient>
<linearGradient id="laneA" x1="0" y1="0" x2="0" y2="1">
<stop offset="0%" stop-color="#A493FF"/>
<stop offset="100%" stop-color="#6F5AF0"/>
</linearGradient>
<linearGradient id="laneB" x1="0" y1="0" x2="0" y2="1">
<stop offset="0%" stop-color="#8E76F4"/>
<stop offset="100%" stop-color="#C95CEF"/>
</linearGradient>
<linearGradient id="fTop" x1="0.1" y1="0" x2="0.7" y2="1">
<stop offset="0%" stop-color="#4E4C6A"/>
<stop offset="100%" stop-color="#383650"/>
</linearGradient>
<linearGradient id="fLeft" x1="0" y1="0" x2="0" y2="1">
<stop offset="0%" stop-color="#2C2A44"/>
<stop offset="100%" stop-color="#1C1A30"/>
</linearGradient>
<linearGradient id="fRight" x1="0" y1="0" x2="0.4" y2="1">
<stop offset="0%" stop-color="#3C3A58"/>
<stop offset="100%" stop-color="#282640"/>
</linearGradient>
<filter id="glow" x="-60%" y="-60%" width="220%" height="220%">
<feGaussianBlur stdDeviation="6" result="b"/>
<feMerge>
<feMergeNode in="b"/>
<feMergeNode in="SourceGraphic"/>
</feMerge>
</filter>
</defs>
<path d="M256.0,98.0 L387.6,174.0 L256.0,250.0 L124.4,174.0 Z" fill="url(#fTop)"/>
<path d="M387.6,174.0 L387.6,326.0 L256.0,402.0 L256.0,250.0 Z" fill="url(#fRight)"/>
<path d="M256.0,250.0 L256.0,402.0 L124.4,326.0 L124.4,174.0 Z" fill="url(#fLeft)"/>
<path d="M256.0,98.0 L387.6,174.0 L387.6,326.0 L256.0,402.0 L124.4,326.0 L124.4,174.0 Z" fill="none" stroke="#FFFFFF" stroke-opacity="0.12" stroke-width="3" stroke-linejoin="round"/>
<g filter="url(#glow)" fill="none" stroke-width="17" stroke-linecap="round">
<path d="M256.0,250.0 L124.4,174.0" stroke="#A98CFF"/>
<path d="M256.0,250.0 L387.6,174.0" stroke="#A98CFF"/>
<path d="M256.0,250.0 L256.0,402.0" stroke="#A98CFF"/>
</g>
<g filter="url(#glow)">
<circle cx="124.4" cy="174.0" r="19" fill="#A98CFF"/>
<circle cx="124.4" cy="174.0" r="8.0" fill="#F5F3FF"/>
</g>
<g filter="url(#glow)">
<circle cx="387.6" cy="174.0" r="19" fill="#A98CFF"/>
<circle cx="387.6" cy="174.0" r="8.0" fill="#F5F3FF"/>
</g>
<g filter="url(#glow)">
<circle cx="256.0" cy="402.0" r="19" fill="#A98CFF"/>
<circle cx="256.0" cy="402.0" r="8.0" fill="#F5F3FF"/>
</g>
<g filter="url(#glow)">
<circle cx="256.0" cy="250.0" r="23" fill="#A98CFF"/>
<circle cx="256.0" cy="250.0" r="9.7" fill="#F5F3FF"/>
</g>
</svg>
