<svg xmlns="http://www.w3.org/2000/svg" width="512" height="512" viewBox="0 0 512 512">
<defs>
<linearGradient id="brand" x1="0.05" y1="0" x2="0.95" y2="1">
<stop offset="0%" stop-color="#9A86FF"/>
<stop offset="52%" stop-color="#7C64F2"/>
<stop offset="100%" stop-color="#C95CEF"/>
</linearGradient>
<linearGradient id="laneA" x1="0" y1="0" x2="0" y2="1">
<stop offset="0%" stop-color="#A493FF"/>
<stop offset="100%" stop-color="#6F5AF0"/>
</linearGradient>
<linearGradient id="laneB" x1="0" y1="0" x2="0" y2="1">
<stop offset="0%" stop-color="#8E76F4"/>
<stop offset="100%" stop-color="#C95CEF"/>
</linearGradient>
<linearGradient id="bg" x1="0" y1="0" x2="0" y2="1">
<stop offset="0%" stop-color="#363D4C"/>
<stop offset="100%" stop-color="#171B23"/>
</linearGradient>
<radialGradient id="bgglow" cx="0.30" cy="0.20" r="0.95">
<stop offset="0%" stop-color="#534B82" stop-opacity="0.55"/>
<stop offset="60%" stop-color="#2A2D3A" stop-opacity="0"/>
</radialGradient>
<filter id="glow" x="-50%" y="-50%" width="200%" height="200%">
<feGaussianBlur stdDeviation="9" result="b"/>
<feMerge>
<feMergeNode in="b"/>
<feMergeNode in="SourceGraphic"/>
</feMerge>
</filter>
</defs>
<rect width="512" height="512" rx="116" fill="url(#bg)"/>
<rect width="512" height="512" rx="116" fill="url(#bgglow)"/>
<rect x="2" y="2" width="508" height="508" rx="114" fill="none" stroke="#fff" stroke-opacity="0.06" stroke-width="3"/>
<g filter="url(#glow)">
<path d="M 366 175 A 122 122 0 1 0 366 337" fill="none" stroke="url(#brand)" stroke-width="31" stroke-linecap="round"/>
<path d="M 366 337 L 366 268 L 286 268" fill="none" stroke="url(#laneB)" stroke-width="31" stroke-linecap="round" stroke-linejoin="round"/>
</g>
<circle cx="366" cy="175" r="27" fill="url(#laneA)"/>
<circle cx="366" cy="175" r="10.8" fill="#F5F3FF"/>
<circle cx="286" cy="268" r="27" fill="url(#laneB)"/>
<circle cx="286" cy="268" r="10.8" fill="#F5F3FF"/>
</svg>
